<svg xmlns="http://www.w3.org/2000/svg" width="15" height="20" viewBox="0 0 15 20">
  <defs>
    <style>
      .cls-1, .cls-2, .cls-5 {
        fill: none;
      }

      .cls-2 {
        stroke: #8395a7;
      }

      .cls-3, .cls-4 {
        stroke: none;
      }

      .cls-4 {
        fill: #8395a7;
      }
    </style>
  </defs>
  <g id="header-cart_icon" transform="translate(-907 -109)">
    <g id="icono-bolsa" transform="translate(-1435 -339.095)">
      <g id="Path_25" data-name="Path 25" class="cls-1" transform="translate(2345.654 448.095)">
        <path class="cls-3" d="M4,0C7.689,0,8,3.293,8,5.9c.023.028-7.985.068-8,0C0,3.293.311,0,4,0Z"/>
        <path class="cls-4" d="M 3.999999046325684 1.000001907348633 C 2.739169120788574 1.000001907348633 1.974889278411865 1.430771827697754 1.521879196166992 2.396751642227173 C 1.184659957885742 3.115817308425903 1.061374664306641 4.028289794921875 1.019600868225098 4.929722785949707 C 1.430490016937256 4.933590412139893 2.028666019439697 4.936491966247559 2.898379325866699 4.936491966247559 C 4.436203479766846 4.936491966247559 6.009880065917969 4.927745819091797 6.979860305786133 4.918222427368164 C 6.937572479248047 4.020526885986328 6.813906669616699 3.112764835357666 6.478119373321533 2.396751642227173 C 6.02510929107666 1.430771827697754 5.260828971862793 1.000001907348633 3.999999046325684 1.000001907348633 M 3.999999046325684 1.9073486328125e-06 C 7.689349174499512 1.9073486328125e-06 7.999999046325684 3.292721748352051 7.999999046325684 5.899121761322021 C 8.013957977294922 5.915587425231934 5.193633556365967 5.936487197875977 2.898378849029541 5.936487197875977 C 1.329530239105225 5.936487197875977 0.006267547607421875 5.926730155944824 -9.5367431640625e-07 5.899121761322021 C -9.5367431640625e-07 3.292721748352051 0.3106493949890137 1.9073486328125e-06 3.999999046325684 1.9073486328125e-06 Z"/>
      </g>
      <g id="Rectangle_94" data-name="Rectangle 94" class="cls-2" transform="translate(2342 453.095)">
        <rect class="cls-3" width="15" height="15" rx="1"/>
        <rect class="cls-5" x="0.5" y="0.5" width="14" height="14" rx="0.5"/>
      </g>
      <path id="Path_26" data-name="Path 26" class="cls-2" d="M2346.507,453.712v3.294" transform="translate(-0.195 -0.289)"/>
      <path id="Path_27" data-name="Path 27" class="cls-2" d="M2346.507,453.712v3.294" transform="translate(6.502 -0.289)"/>
    </g>
  </g>
</svg>
