<svg xmlns="http://www.w3.org/2000/svg" width="16.001" height="20" viewBox="0 0 16.001 20">
  <defs>
    <style>
      .cls-1, .cls-2, .cls-4 {
        fill: none;
      }

      .cls-1 {
        stroke: #8395a7;
      }

      .cls-3, .cls-5 {
        stroke: none;
      }

      .cls-5 {
        fill: #8395a7;
      }
    </style>
  </defs>
  <g id="header-user_icon" transform="translate(-838.999 -110)">
    <g id="icono-usuario" transform="translate(-1347 -339.449)">
      <g id="Ellipse_3" data-name="Ellipse 3" class="cls-1" transform="translate(2189 449.449)">
        <circle class="cls-3" cx="5" cy="5" r="5"/>
        <circle class="cls-4" cx="5" cy="5" r="4.5"/>
      </g>
      <g id="Path_24" data-name="Path 24" class="cls-2" transform="translate(2186 461.899)">
        <path class="cls-3" d="M8,0a7.762,7.762,0,0,1,8,7.5c0-.011-16.119.119-16,0A7.762,7.762,0,0,1,8,0Z"/>
        <path class="cls-5" d="M 7.999996185302734 1.000003814697266 C 4.49144172668457 1.000003814697266 1.577479362487793 3.409412860870361 1.076176643371582 6.539883613586426 C 1.61374568939209 6.545950412750244 2.454409599304199 6.550613880157471 3.768815994262695 6.550613880157471 C 6.857706069946289 6.550613880157471 11.15395641326904 6.525563716888428 13.72088623046875 6.510593891143799 C 14.17647933959961 6.507936477661133 14.58093166351318 6.505577087402344 14.9179105758667 6.503711223602295 C 14.40015602111816 3.390745639801025 11.49512195587158 1.000003814697266 7.999996185302734 1.000003814697266 M 7.999996185302734 3.814697265625e-06 C 12.41827583312988 3.814697265625e-06 15.99999618530273 3.357863903045654 15.99999618530273 7.500003814697266 C 15.99993419647217 7.499521732330322 15.97068786621094 7.499295234680176 15.91509532928467 7.499295234680176 C 15.07672882080078 7.499295234680176 8.204732894897461 7.55061674118042 3.768816947937012 7.55061674118042 C 1.564613342285156 7.55061674118042 -0.03794479370117188 7.537944793701172 -3.814697265625e-06 7.500003814697266 C -3.814697265625e-06 3.357863903045654 3.58172607421875 3.814697265625e-06 7.999996185302734 3.814697265625e-06 Z"/>
      </g>
    </g>
  </g>
</svg>
