<svg xmlns="http://www.w3.org/2000/svg" width="44" height="44" viewBox="0 0 44 44"><g transform="translate(-109 82)"><rect width="44" height="44" transform="translate(109 -82)" fill="none"/><g transform="translate(113.5 -77.5)"><path d="M26.91,26.91A15.105,15.105,0,0,1,18,30C7.5,30,1.5,18,1.5,18A27.675,27.675,0,0,1,9.09,9.09m5.76-2.73A13.68,13.68,0,0,1,18,6C28.5,6,34.5,18,34.5,18a27.75,27.75,0,0,1-3.24,4.785m-10.08-1.6a4.5,4.5,0,1,1-6.36-6.36" fill="none" stroke="#000" stroke-linecap="round" stroke-linejoin="round" stroke-width="3"/><path d="M1.5,1.5l33,33" fill="none" stroke="#000" stroke-linecap="round" stroke-linejoin="round" stroke-width="3"/></g></g></svg>