<svg id="Layer_3" data-name="Layer 3" xmlns="http://www.w3.org/2000/svg" viewBox="0 0 473.5 93.55"><title>alaska_logo</title><path d="M82.39,89.16,61.33,38.47a1,1,0,0,0-.8-.61l-6.46-.79a1,1,0,0,0-1,1.37l6.69,16.73a1,1,0,0,1-.93,1.37H27.5a1,1,0,0,1-.93-1.37l8.18-20.46,5.77-14.45L42.21,16a1,1,0,0,1,1.86,0l1.74,4.34a1,1,0,0,0,.8.62l6.15.76a1,1,0,0,0,1.05-1.38L47.07,4.16a1,1,0,0,0-.92-.62h-5.9a1,1,0,0,0-.92.61L33,19.33,27,33.75,3.77,89.15a1,1,0,0,0,.93,1.39h7.23a1,1,0,0,0,.93-.63L23.15,64.17a1,1,0,0,1,.93-.63H62.2a1,1,0,0,1,.93.63L73.41,89.91a1,1,0,0,0,.93.63h7.13A1,1,0,0,0,82.39,89.16Z"/><path d="M153,82.54H104V43.21L95,42.1V90.54h58a1,1,0,0,0,1-1v-6A1,1,0,0,0,153,82.54Zm-50-79H96a1,1,0,0,0-1,1V27l9,1.1V4.54A1,1,0,0,0,103,3.54Z"/><path d="M236,89.16,223.18,58.34a1,1,0,0,0-.8-.6l-9.89-1.21H181.1a1,1,0,0,1-.93-1.37l1-2.49,5.78-14.44L195.81,16a1,1,0,0,1,1.85,0l9.66,24.18a1,1,0,0,0,.8.62l6.5.79a1,1,0,0,0,1-1.38l-15-36.09a1,1,0,0,0-.93-.62h-5.89a1,1,0,0,0-.92.61L179.07,37.27l-6,14.41L157.37,89.15a1,1,0,0,0,.92,1.39h7.24a1,1,0,0,0,.93-.63l10.29-25.74a1,1,0,0,1,.93-.63H215.8a1,1,0,0,1,.92.63L227,89.91a1,1,0,0,0,.93.63h7.12A1,1,0,0,0,236,89.16Z"/><path d="M297.59,67c0,.38,0,.78,0,1.18q0,7.43-5.79,11.2t-16.17,3.78a48.08,48.08,0,0,1-9.45-.92,42.53,42.53,0,0,1-8.54-2.62,46.07,46.07,0,0,1-7.2-3.84,33,33,0,0,1-4.66-3.68,1,1,0,0,0-1.56.18l-3.16,5.15a1,1,0,0,0,.19,1.29,46.73,46.73,0,0,0,9.61,6.45,51.79,51.79,0,0,0,11.66,4.15,58,58,0,0,0,12.87,1.4A53.08,53.08,0,0,0,288,89.3,28.92,28.92,0,0,0,297.87,85a20.7,20.7,0,0,0,6.47-7.31A21.09,21.09,0,0,0,306.6,69a1,1,0,0,0-.89-1ZM257.92,14.75q5.31-4.32,16.65-4.32a35.59,35.59,0,0,1,7.38.73,39.79,39.79,0,0,1,6.53,1.95A29,29,0,0,1,294,16a22.28,22.28,0,0,1,3.4,2.79,1,1,0,0,0,1.55-.19l3-5a1,1,0,0,0-.2-1.29,38,38,0,0,0-7.23-4.92A38.65,38.65,0,0,0,285.37,4a46.8,46.8,0,0,0-10.68-1.16,41.87,41.87,0,0,0-16,2.86,24.66,24.66,0,0,0-10.92,8.41,22.76,22.76,0,0,0-4,13.58q0,7,3.11,11.15a21.26,21.26,0,0,0,9.33,6.76c1.38.56,2.85,1.12,4.45,1.65l.2,0,35.39,4.34a1,1,0,0,0,.63-1.86,31.36,31.36,0,0,0-4.31-2.1,97.5,97.5,0,0,0-16-4.63Q268.34,41.12,263,39.3t-7.87-4.76c-1.66-1.94-2.5-4.62-2.5-8A14.35,14.35,0,0,1,257.92,14.75Z"/><path d="M385.74,5A.86.86,0,0,0,385,3.54h-6.67a.53.53,0,0,0-.73.12L331.93,52c-.62.66-1.91-.69-1.91-.69V4.54a1,1,0,0,0-1-1h-7a1,1,0,0,0-1,1V89.09s1.09,1,1.64,1.45h6.54c.56-.45,1-.9.82-1.45V63.86a5.16,5.16,0,0,1,.46-.69l6.29-6.54,8.85-9.19a1,1,0,0,1,1.52.09l8.44,11.1a1.05,1.05,0,0,0,.67.39l7.68.94a1,1,0,0,0,.92-1.6L352.43,42.14a1,1,0,0,1,.06-1.29Zm2.16,83.45-8.55-11.17a1,1,0,0,0-.67-.39l-7.79-1a1,1,0,0,0-.92,1.6l9.22,12.13a7.58,7.58,0,0,1,.8.84h7.12C387.93,90.09,388.4,89.14,387.9,88.48Z"/><path d="M469.74,89.16l-.24-.57a1,1,0,0,0-.8-.61l-7.49-.92a1,1,0,0,0-1,1.37l.6,1.48a1,1,0,0,0,.93.63h7.12A1,1,0,0,0,469.74,89.16Zm-35.32-85a1,1,0,0,0-.92-.62h-5.9a1,1,0,0,0-.92.61L401.4,64.57l-6,14.41-4.25,10.17a1,1,0,0,0,.92,1.39h7.24a1,1,0,0,0,.93-.63l3.94-9.85,5.77-14.45.58-1.44a1,1,0,0,1,.93-.63h38.12a1,1,0,0,1,.92.63l2.48,6.2a1,1,0,0,0,.8.62l7.18.89A1,1,0,0,0,462,70.5Zm11.7,52.38H414.85a1,1,0,0,1-.93-1.37L429.56,16a1,1,0,0,1,1.86,0l15.63,39.13A1,1,0,0,1,446.12,56.54Z"/></svg>